{"title":"Treasure Buddies 2012 BRRip XviD - ZOMBiES","uid":6951557,"size":663053280,"categoryP":"video","categoryS":"movies","magnet":"?xt=urn:btih:93d6a1204c334fa317c43d56626f7b2d29806dd2&amp;dn=Treasure+Buddies+2012+BRRip+XviD+-+ZOMBiES&amp;tr=udp%3A%2F%2Ftracker.openbittorrent.com%3A80&amp;tr=udp%3A%2F%2Fopen.demonii.com%3A1337&amp;tr=udp%3A%2F%2Ftracker.coppersurfer.tk%3A6969&amp;tr=udp%3A%2F%2Fexodus.desync.com%3A6969","seeders":0,"leechers":1,"uploader":"HeroMaster","files":-1,"time":1326426112,"description":"Another Fine Release Brought to you from - ZOMBiES                  \n                                               \n\n*******************************************************************************\n\nTreasure Buddies 2012 BRRip XviD - ZOMBiES                                      \n\n*******************************************************************************\n\n\nRelease Name : Treasure Buddies 2012 BRRip XviD - ZOMBiES\nRating : 9.0/10\nGenre : Comedy, Family\nStars : Richard Riehle, Edward Herrmann, Mason Cook, Adam Alexi-Malle\nDirector : Robert Vince\nWriters : Anna McRoberts, Robert Vince\nRelease Date : 31 Jan 2012\nMovie Runtime : N/A\nRated Under : G\nMovie Plot : N/A\n &lt;a href=&quot;\nhttp://www.imdb.com/title/tt1791658/&quot; rel=&quot;nofollow&quot; target=&quot;_NEW&quot;&gt;\nhttp://www.imdb.com/title/tt1791658/&lt;/a&gt;\n\nFormat                           : AVI\nFormat/Info                      : Audio Video Interleave\nFile size                        : 632 MiB\nDuration                         : 1h 32mn\nOverall bit rate mode            : Variable\nOverall bit rate                 : 952 Kbps\nWriting application              : MEncoder SVN-r33823-4.1.2\nWriting library                  : MPlayer\n\nVideo\nID                               : 0\nFormat                           : xvid\nCodec ID                         : xvid\nDuration                         : 1h 32mn\nBit rate                         : 752 Kbps\nWidth                            : 624 pixels\nHeight                           : 336 pixels\nDisplay aspect ratio             : 1.857\nFrame rate                       : 23.976 fps\nBits/(Pixel*Frame)               : 0.150\nStream size                      : 500 MiB (79%)\n\nAudio\nID                               : 1\nFormat                           : MPEG Audio\nFormat version                   : Version 1\nFormat profile                   : Layer 3\nMode                             : Joint stereo\nMode extension                   : MS Stereo\nCodec ID                         : 55\nCodec ID/Hint                    : MP3\nDuration                         : 1h 32mn\nBit rate mode                    : Variable\nBit rate                         : 188 Kbps\nChannel(s)                       : 2 channels\nSampling rate                    : 44.1 KHz\nCompression mode                 : Lossy\nStream size                      : 125 MiB (20%)\nAlignment                        : Aligned on interleaves\nInterleave, duration             : 26 ms (0.63 video frame)\nInterleave, preload duration     : 88 ms\nWriting library                  : LAME3.98.4\n\nGREETS:\n\nFLAWL3SS,ViSiON,Rx,ELEKTRI4KA,26K,DTRG,3LT0N,RemixHD\nAnd to all the other p2p grps past and present .\n\nLooking for these,syncers,cammers,audio,silver supplier.....Have anything to offer????......\nYou know how to find us .\n\n\nPoster:\n\n &lt;a href=&quot;\nhttp://i.imgur.com/SWL1P.jpg&quot; rel=&quot;nofollow&quot; target=&quot;_NEW&quot;&gt;\nhttp://i.imgur.com/SWL1P.jpg&lt;/a&gt;\n\n\nScreens:\n\n &lt;a href=&quot;\nhttp://i.imgur.com/d8enR.jpg&quot; rel=&quot;nofollow&quot; target=&quot;_NEW&quot;&gt;\nhttp://i.imgur.com/d8enR.jpg&lt;/a&gt;\n\n &lt;a href=&quot;\nhttp://i.imgur.com/Kx6P4.jpg&quot; rel=&quot;nofollow&quot; target=&quot;_NEW&quot;&gt;\nhttp://i.imgur.com/Kx6P4.jpg&lt;/a&gt;\n\n &lt;a href=&quot;\nhttp://i.imgur.com/nU1Oa.jpg&quot; rel=&quot;nofollow&quot; target=&quot;_NEW&quot;&gt;\nhttp://i.imgur.com/nU1Oa.jpg&lt;/a&gt;\n\n\n\nENJOY!","torrent":{"xt":"urn:btih:93d6a1204c334fa317c43d56626f7b2d29806dd2","amp;dn":"Treasure+Buddies+2012+BRRip+XviD+-+ZOMBiES","amp;tr":["udp%3A%2F%2Ftracker.openbittorrent.com%3A80","udp%3A%2F%2Fopen.demonii.com%3A1337","udp%3A%2F%2Ftracker.coppersurfer.tk%3A6969","udp%3A%2F%2Fexodus.desync.com%3A6969"],"infoHash":"93d6a1204c334fa317c43d56626f7b2d29806dd2","infoHashBuffer":{"type":"Buffer","data":[147,214,161,32,76,51,79,163,23,196,61,86,98,111,123,45,41,128,109,210]},"announce":[],"urlList":[]}}